#define siconify_width 11
#define siconify_height 11
static char siconify_bits[] = {
   0xff, 0x07, 0x01, 0x04, 0x1d, 0x05, 0xbd, 0x05, 0xb9, 0x04, 0xd9, 0x04,
   0xe9, 0x04, 0xed, 0x05, 0xc5, 0x05, 0x01, 0x04, 0xff, 0x07};
