#define siconify_width 11
#define siconify_height 11
static char siconify_bits[] = {
   0x07, 0x06, 0x0f, 0x03, 0x1e, 0x01, 0xbc, 0x01, 0xb8, 0x00, 0xd8, 0x00,
   0xe8, 0x00, 0xec, 0x01, 0xc4, 0x03, 0x86, 0x07, 0x03, 0x07};
