#define siconify_width 11
#define siconify_height 11
static char siconify_bits[] = {
   0xff, 0x07, 0x01, 0x04, 0xdd, 0x05, 0xdd, 0x05, 0xdd, 0x05, 0x01, 0x04,
   0xdd, 0x05, 0xdd, 0x05, 0xdd, 0x05, 0x01, 0x04, 0xff, 0x07};
