#define xditview_width 64
#define xditview_height 64
#define xditview_x_hot -1
#define xditview_y_hot -1
static char xditview_bits[] = {
   0x00, 0x00, 0x00, 0x00, 0x00, 0x00, 0x00, 0x00, 0x00, 0xff, 0xff, 0xff,
   0xff, 0xff, 0x01, 0x00, 0x00, 0x01, 0x00, 0x00, 0xf0, 0x3f, 0x01, 0x00,
   0x00, 0x01, 0x88, 0x88, 0x0c, 0xc0, 0x01, 0x00, 0x00, 0x01, 0x10, 0x11,
   0x03, 0x00, 0x07, 0x00, 0x00, 0x01, 0x44, 0xc4, 0x00, 0x00, 0x18, 0x00,
   0x00, 0x01, 0x20, 0x22, 0x00, 0x00, 0x20, 0x00, 0x00, 0x01, 0x00, 0x18,
   0x00, 0x00, 0xc0, 0x00, 0x00, 0x01, 0x00, 0x04, 0x00, 0x00, 0x00, 0x01,
   0x00, 0x41, 0x44, 0x06, 0x00, 0x00, 0x00, 0x02, 0x00, 0x21, 0x22, 0x02,
   0x00, 0x00, 0x00, 0x02, 0x00, 0x89, 0x88, 0x01, 0x00, 0x00, 0x00, 0x04,
   0x00, 0x11, 0x91, 0x01, 0x00, 0x00, 0x00, 0x08, 0x00, 0x01, 0xc0, 0x00,
   0x00, 0x00, 0x00, 0x08, 0x00, 0x01, 0x62, 0x00, 0x00, 0x00, 0x00, 0x10,
   0x00, 0x89, 0x48, 0x00, 0xfc, 0xe0, 0x03, 0x10, 0x00, 0x11, 0x31, 0x00,
   0x70, 0xc0, 0x00, 0x20, 0x00, 0x41, 0x24, 0x00, 0xe0, 0x60, 0x00, 0x20,
   0x00, 0x21, 0x22, 0x00, 0xc0, 0x20, 0x00, 0x20, 0x00, 0x01, 0x10, 0x00,
   0x80, 0x11, 0x00, 0x40, 0x00, 0x01, 0x10, 0x00, 0x80, 0x0b, 0x00, 0x40,
   0x00, 0x41, 0x14, 0x00, 0x00, 0x07, 0x00, 0x40, 0x00, 0x21, 0x12, 0x00,
   0x00, 0x06, 0x00, 0x40, 0x00, 0x89, 0x18, 0x00, 0x00, 0x0e, 0x00, 0x40,
   0x00, 0x11, 0x11, 0x00, 0x00, 0x1d, 0x00, 0x40, 0x00, 0x41, 0x10, 0x00,
   0x80, 0x38, 0x00, 0x40, 0x00, 0x01, 0x10, 0x00, 0xc0, 0x30, 0x00, 0x40,
   0x00, 0x89, 0x18, 0x00, 0x40, 0x60, 0x00, 0x40, 0x00, 0x11, 0x31, 0x00,
   0x20, 0xe0, 0x00, 0x20, 0x00, 0x41, 0x24, 0x00, 0x30, 0xc0, 0x01, 0x20,
   0x00, 0x21, 0x22, 0x00, 0x18, 0x80, 0x03, 0x20, 0x00, 0x01, 0x40, 0x00,
   0x7e, 0xe0, 0x07, 0x10, 0x00, 0x11, 0x51, 0x00, 0x00, 0x00, 0x00, 0x10,
   0x00, 0x41, 0xc4, 0x00, 0x00, 0x00, 0x00, 0x18, 0x00, 0x21, 0xa2, 0x00,
   0x00, 0x00, 0x00, 0x38, 0x00, 0x89, 0x88, 0x01, 0x00, 0x00, 0x00, 0x7c,
   0x00, 0x11, 0x11, 0x03, 0x00, 0x00, 0x00, 0xfe, 0x00, 0x01, 0x00, 0x06,
   0x00, 0x00, 0x00, 0xfe, 0x00, 0x21, 0x02, 0x06, 0x00, 0x00, 0x00, 0xff,
   0x00, 0x89, 0x88, 0x18, 0x00, 0x00, 0xc0, 0xff, 0x00, 0x11, 0x11, 0x31,
   0x00, 0x00, 0xe0, 0xff, 0x00, 0x41, 0x44, 0xc0, 0x00, 0x00, 0xf8, 0xff,
   0x00, 0x01, 0x00, 0x00, 0x03, 0x00, 0xff, 0xff, 0x00, 0x09, 0x88, 0x88,
   0x1c, 0xc0, 0xf1, 0xff, 0x00, 0x11, 0x11, 0x11, 0xf1, 0x3f, 0xe1, 0xff,
   0x00, 0x41, 0x44, 0x44, 0x44, 0x04, 0x81, 0xff, 0x00, 0x21, 0x02, 0x22,
   0x20, 0x22, 0x01, 0xff, 0x00, 0x01, 0x00, 0x00, 0x00, 0x00, 0x01, 0xfe,
   0x00, 0x01, 0x00, 0x00, 0x00, 0x00, 0x01, 0xf8, 0x00, 0xff, 0xff, 0xff,
   0xff, 0xff, 0x01, 0xf0, 0x00, 0x00, 0x00, 0x00, 0x00, 0x00, 0x00, 0xe0,
   0x00, 0x00, 0x00, 0x00, 0x00, 0x00, 0x00, 0x80, 0x00, 0xce, 0x31, 0x00,
   0x20, 0x00, 0x00, 0x00, 0x00, 0x84, 0x20, 0x00, 0x00, 0x00, 0x00, 0x00,
   0x00, 0x48, 0x20, 0x08, 0x00, 0x00, 0x00, 0x00, 0x00, 0x38, 0xb8, 0xfd,
   0x3c, 0xe6, 0x36, 0x00, 0x00, 0x30, 0x24, 0x89, 0x24, 0x49, 0x12, 0x00,
   0x00, 0x68, 0x24, 0x89, 0x26, 0xcf, 0x1a, 0x00, 0x00, 0x48, 0x24, 0x89,
   0x22, 0x81, 0x0a, 0x00, 0x00, 0x84, 0x24, 0x09, 0x23, 0x93, 0x05, 0x00,
   0x00, 0xce, 0xd9, 0x33, 0x71, 0x8e, 0x04, 0x00, 0x00, 0x00, 0x00, 0x00,
   0x00, 0x00, 0x00, 0x00, 0x00, 0x00, 0x00, 0x00, 0x00, 0x00, 0x00, 0x00,
   0x00, 0x00, 0x00, 0x00, 0x00, 0x00, 0x00, 0x00};
