STARTFONT 2.1
COMMENT 
COMMENT  Copyright 1989 by Sun Microsystems, Inc. Mountain View, CA.
COMMENT 
COMMENT  Permission to use, copy, modify, and distribute this software and
COMMENT  its documentation for any purpose and without fee is hereby granted,
COMMENT  provided that the above copyright notices appear in all copies and
COMMENT  that both those copyright notices and this permission notice appear
COMMENT  in supporting documentation, and that the name of Sun Microsystems
COMMENT  not be used in advertising or publicity pertaining to distribution
COMMENT  of the software without specific, written prior permission.  Sun
COMMENT  Microsystems make no representations about the suitability of this
COMMENT  software for any purpose.  It is provided "as is" without express or
COMMENT  implied warranty.
COMMENT 
COMMENT  SUN MICROSYSTEMS DISCLAIM ALL WARRANTIES WITH REGARD TO THIS
COMMENT  SOFTWARE, INCLUDING ALL IMPLIED WARRANTIES OF MERCHANTABILITY AND
COMMENT  FITNESS, IN NO EVENT SHALL SUN MICROSYSTEMS BE LIABLE FOR ANY
COMMENT  SPECIAL, INDIRECT OR CONSEQUENTIAL DAMAGES OR ANY DAMAGES WHATSOEVER
COMMENT  RESULTING FROM LOSS OF USE, DATA OR PROFITS, WHETHER IN AN ACTION OF
COMMENT  CONTRACT, NEGLIGENCE OR OTHER TORTIOUS ACTION, ARISING OUT OF OR IN
COMMENT  CONNECTION WITH THE USE OR PERFORMANCE OF THIS SOFTWARE.
COMMENT 
COMMENT  ** Open Look Glyph Font, 14-pt **
COMMENT
FONT olglyph-14
SIZE 14 78 78
FONTBOUNDINGBOX 53 53 0 0
STARTPROPERTIES 2
FONT_DESCENT 53
FONT_ASCENT 0
ENDPROPERTIES
CHARS 18
STARTCHAR VerticalScrollbarElevator
ENCODING 1
SWIDTH 96 0
DWIDTH 16 0
BBX 17 53 0 -53
BITMAP
7FFF00
800180
800180
800180
800180
818180
83C180
87E180
8FF180
9FF980
9FF980
800180
800180
800180
800180
800180
800180
FFFF80
800180
800180
800180
800180
800180
800180
800180
800180
800180
800180
800180
800180
800180
800180
800180
800180
FFFF80
800180
800180
800180
800180
800180
800180
9FF980
9FF980
8FF180
87E180
83C180
818180
800180
800180
800180
800180
FFFF80
7FFF00
ENDCHAR
STARTCHAR VerticalScrollbarElevatorLineBackward
ENCODING 2
SWIDTH 96 0
DWIDTH 16 0
BBX 17 53 0 -53
BITMAP
7FFF00
FFFF80
FFFF80
FFFF80
FFFF80
FE7F80
FC3F80
F81F80
F00F80
E00780
E00780
FFFF80
FFFF80
FFFF80
FFFF80
FFFF80
FFFF80
FFFF80
800180
800180
800180
800180
800180
800180
800180
800180
800180
800180
800180
800180
800180
800180
800180
800180
FFFF80
800180
800180
800180
800180
800180
800180
9FF980
9FF980
8FF180
87E180
83C180
818180
800180
800180
800180
800180
FFFF80
7FFF00
ENDCHAR
STARTCHAR VerticalScrollbarElevatorAbsolute
ENCODING 3
SWIDTH 96 0
DWIDTH 16 0
BBX 17 53 0 -53
BITMAP
7FFF00
800180
800180
800180
800180
818180
83C180
87E180
8FF180
9FF980
9FF980
800180
800180
800180
800180
800180
800180
FFFF80
FFFF80
FFFF80
FFFF80
FFFF80
FFFF80
FFFF80
FFFF80
FFFF80
FFFF80
FFFF80
FFFF80
FFFF80
FFFF80
FFFF80
FFFF80
FFFF80
FFFF80
800180
800180
800180
800180
800180
800180
9FF980
9FF980
8FF180
87E180
83C180
818180
800180
800180
800180
800180
FFFF80
7FFF00
ENDCHAR
STARTCHAR VerticalScrollbarElevatorLineForward
ENCODING 4
SWIDTH 96 0
DWIDTH 16 0
BBX 17 53 0 -53
BITMAP
7FFF00
800180
800180
800180
800180
818180
83C180
87E180
8FF180
9FF980
9FF980
800180
800180
800180
800180
800180
800180
FFFF80
800180
800180
800180
800180
800180
800180
800180
800180
800180
800180
800180
800180
800180
800180
800180
800180
FFFF80
FFFF80
FFFF80
FFFF80
FFFF80
FFFF80
FFFF80
E00780
E00780
F00F80
F81F80
FC3F80
FE7F80
FFFF80
FFFF80
FFFF80
FFFF80
FFFF80
7FFF00
ENDCHAR
STARTCHAR VerticalScrollbarReducedElevator
ENCODING 5
SWIDTH 96 0
DWIDTH 16 0
BBX 17 36 0 -36
BITMAP
7FFF00
800180
800180
800180
800180
818180
83C180
87E180
8FF180
9FF980
9FF980
800180
800180
800180
800180
800180
800180
FFFF80
800180
800180
800180
800180
800180
800180
9FF980
9FF980
8FF180
87E180
83C180
818180
800180
800180
800180
800180
FFFF80
7FFF00
ENDCHAR
STARTCHAR VerticalScrollbarReducedElevatorLineBackward
ENCODING 6
SWIDTH 96 0
DWIDTH 16 0
BBX 17 36 0 -36
BITMAP
7FFF00
FFFF80
FFFF80
FFFF80
FFFF80
FE7F80
FC3F80
F81F80
F00F80
E00780
E00780
FFFF80
FFFF80
FFFF80
FFFF80
FFFF80
FFFF80
FFFF80
800180
800180
800180
800180
800180
800180
9FF980
9FF980
8FF180
87E180
83C180
818180
800180
800180
800180
800180
FFFF80
7FFF00
ENDCHAR
STARTCHAR VerticalScrollbarReducedElevatorLineForward
ENCODING 7
SWIDTH 96 0
DWIDTH 16 0
BBX 17 36 0 -36
BITMAP
7FFF00
800180
800180
800180
800180
818180
83C180
87E180
8FF180
9FF980
9FF980
800180
800180
800180
800180
800180
800180
FFFF80
FFFF80
FFFF80
FFFF80
FFFF80
FFFF80
FFFF80
E00780
E00780
F00F80
F81F80
FC3F80
FE7F80
FFFF80
FFFF80
FFFF80
FFFF80
FFFF80
7FFF00
ENDCHAR
STARTCHAR VerticalScrollbarAnchor
ENCODING 8
SWIDTH 96 0
DWIDTH 16 0
BBX 17 7 0 -7
BITMAP
FFFF80
800080
800080
800080
800080
800080
FFFF80
ENDCHAR
STARTCHAR VerticalScrollbarAnchorInverted
ENCODING 9
SWIDTH 96 0
DWIDTH 16 0
BBX 17 7 0 -7
BITMAP
FFFF80
FFFF80
FFFF80
FFFF80
FFFF80
FFFF80
FFFF80
ENDCHAR
STARTCHAR HorizontalScrollbarElevator
ENCODING 10
SWIDTH 96 0
DWIDTH 16 0
BBX 53 17 0 -17
BITMAP
7FFFFFFFFFFFF000
8000400020001800
8000400020001800
8060400020601800
80e0400020701800
81E0400020781800
83E04000207c1800
87E04000207e1800
87E04000207E1800
83E04000207c1800
81E0400020781800
80E0400020701800
8060400020601800
8000400020001800
8000400020001800
fffffffffffff800
7FFFFFFFFFFFF000
ENDCHAR
STARTCHAR HorizontalScrollbarElevatorLineBackward
ENCODING 11
SWIDTH 96 0
DWIDTH 16 0
BBX 53 17 0 -17
BITMAP
7FFFFFFFFFFFF000
FFFFc00020001800
FFFFC00020001800
FF9FC00020601800
FF1FC00020701800
Fe1FC00020781800
Fc1FC000207c1800
F81FC000207e1800
F81FC000207E1800
Fc1FC000207c1800
Fe1FC00020781800
Ff1FC00020701800
FF9FC00020601800
FFfFC00020001800
FFFFC00020001800
FFFFfffffffff800
7FFFFFFFFFFFF000
ENDCHAR
STARTCHAR HorizontalScrollbarElevatorAbsolute
ENCODING 12
SWIDTH 96 0
DWIDTH 16 0
BBX 53 17 0 -17
BITMAP
7FFFFFFFFFFFF000
80007FFFe0001800
80007FFFE0001800
80607FFFE0601800
80e07FFFE0701800
81E07FFFE0781800
83E07FFFE07c1800
87E07FFFE07e1800
87E07FFFE07E1800
83E07FFFE07c1800
81E07FFFE0781800
80E07FFFE0701800
80607FFFE0601800
80007FFFE0001800
80007FFFE0001800
fffffFFFfffff800
7FFFFFFFFFFFF000
ENDCHAR
STARTCHAR HorizontalScrollbarElevatorLineForward
ENCODING 13
SWIDTH 96 0
DWIDTH 16 0
BBX 53 17 0 -17
BITMAP
7FFFFFFFFFFFF000
800040003FFFF800
800040003FFFF800
806040003F9FF800
80e040003F8FF800
81E040003F87F800
83E040003F83F800
87E040003F81F800
87E040003F81F800
83E040003F83F800
81E040003F87F800
80E040003F8fF800
806040003F9FF800
800040003FfFF800
800040003FFFF800
fffffffffFFFF800
7FFFFFFFFFFFF000
ENDCHAR
STARTCHAR HorizontalScrollbarReducedElevator
ENCODING 14
SWIDTH 96 0
DWIDTH 16 0
BBX 36 17 0 -17
BITMAP
7FFFFFFFE0
8000400030
8000400030
806040c030
80e040e030
81E040f030
83E040F830
87E040Fc30
87E040Fc30
83E040F830
81E040F030
80E040e030
806040c030
8000400030
8000400030
fffffffff0
7FFFFFFFE0
ENDCHAR
STARTCHAR HorizontalScrollbarReducedElevatorLineBackward
ENCODING 15
SWIDTH 96 0
DWIDTH 16 0
BBX 36 17 0 -17
BITMAP
7FFFFFFFE0
FFFFc00030
FFFFC00030
FF9FC0c030
FF1FC0e030
Fe1FC0f030
Fc1FC0F830
F81FC0Fc30
F81FC0Fc30
Fc1FC0F830
Fe1FC0F030
Ff1FC0e030
FF9FC0c030
FFfFC00030
FFFFC00030
FFFFfffff0
7FFFFFFFE0
ENDCHAR
STARTCHAR HorizontalScrollbarReducedElevatorLineForward
ENCODING 16
SWIDTH 96 0
DWIDTH 16 0
BBX 36 17 0 -17
BITMAP
7FFFFFFFE0
80007FFFF0
80007FFFF0
80607F3FF0
80e07F1FF0
81E07F0fF0
83E07F07F0
87E07F03F0
87E07F03F0
83E07F07F0
81E07F0fF0
80E07F1FF0
80607F3FF0
80007FfFF0
80007FFFF0
fffffFFFF0
7FFFFFFFE0
ENDCHAR
STARTCHAR HorizontalScrollbarAnchor
ENCODING 17
SWIDTH 96 0
DWIDTH 16 0
BBX 7 17 0 -17
BITMAP
FE
82
82
82
82
82
82
82
82
82
82
82
82
82
82
82
FE
ENDCHAR
STARTCHAR HorizontalScrollbarAnchorInverted
ENCODING 18
SWIDTH 96 0
DWIDTH 16 0
BBX 7 17 0 -17
BITMAP
FE
FE
FE
FE
FE
FE
FE
FE
FE
FE
FE
FE
FE
FE
FE
FE
FE
ENDCHAR
ENDFONT
