STARTFONT 2.1
COMMENT 
COMMENT  Copyright 1989 by Sun Microsystems, Inc. Mountain View, CA.
COMMENT 
COMMENT  Permission to use, copy, modify, and distribute this software and
COMMENT  its documentation for any purpose and without fee is hereby granted,
COMMENT  provided that the above copyright notices appear in all copies and
COMMENT  that both those copyright notices and this permission notice appear
COMMENT  in supporting documentation, and that the name of Sun Microsystems
COMMENT  not be used in advertising or publicity pertaining to distribution
COMMENT  of the software without specific, written prior permission.  Sun
COMMENT  Microsystems make no representations about the suitability of this
COMMENT  software for any purpose.  It is provided "as is" without express or
COMMENT  implied warranty.
COMMENT 
COMMENT  SUN MICROSYSTEMS DISCLAIM ALL WARRANTIES WITH REGARD TO THIS
COMMENT  SOFTWARE, INCLUDING ALL IMPLIED WARRANTIES OF MERCHANTABILITY AND
COMMENT  FITNESS, IN NO EVENT SHALL SUN MICROSYSTEMS BE LIABLE FOR ANY
COMMENT  SPECIAL, INDIRECT OR CONSEQUENTIAL DAMAGES OR ANY DAMAGES WHATSOEVER
COMMENT  RESULTING FROM LOSS OF USE, DATA OR PROFITS, WHETHER IN AN ACTION OF
COMMENT  CONTRACT, NEGLIGENCE OR OTHER TORTIOUS ACTION, ARISING OUT OF OR IN
COMMENT  CONNECTION WITH THE USE OR PERFORMANCE OF THIS SOFTWARE.
COMMENT 
COMMENT  ** Open Look Glyph Font, 19-pt **
COMMENT
FONT olglyph-19
SIZE 19 78 78
FONTBOUNDINGBOX 65 65 0 0
STARTPROPERTIES 2
FONT_DESCENT 65
FONT_ASCENT 0
ENDPROPERTIES
CHARS 18
STARTCHAR VerticalScrollbarElevator
ENCODING 1
SWIDTH 96 0
DWIDTH 16 0
BBX 21 65 0 -65
BITMAP
7FFFF0
800018
800018
800018
800018
800018
806018
80F018
81F818
83FC18
87FE18
8FFF18
9FFF98
9FFF98
800018
800018
800018
800018
800018
800018
800018
FFFFF8
800018
800018
800018
800018
800018
800018
800018
800018
800018
800018
800018
800018
800018
800018
800018
800018
800018
800018
800018
800018
FFFFF8
800018
800018
800018
800018
800018
800018
800018
9FFF98
9FFF98
8FFF18
87FE18
83FC18
81F818
80F018
806018
800018
800018
800018
800018
800018
FFFFF8
7FFFF0
ENDCHAR
STARTCHAR VerticalScrollbarElevatorLineBackward
ENCODING 2
SWIDTH 96 0
DWIDTH 16 0
BBX 21 65 0 -65
BITMAP
7FFFF0
FFFFF8
FFFFF8
FFFFF8
FFFFF8
FFFFF8
FF9FF8
FF0FF8
FE07F8
FC03F8
F801F8
F000F8
E00078
E00078
FFFFF8
FFFFF8
FFFFF8
FFFFF8
FFFFF8
FFFFF8
FFFFF8
FFFFF8
800018
800018
800018
800018
800018
800018
800018
800018
800018
800018
800018
800018
800018
800018
800018
800018
800018
800018
800018
800018
FFFFF8
800018
800018
800018
800018
800018
800018
800018
9FFF98
9FFF98
8FFF18
87FE18
83FC18
81F818
80F018
806018
800018
800018
800018
800018
800018
FFFFF8
7FFFF0
ENDCHAR
STARTCHAR VerticalScrollbarElevatorAbsolute
ENCODING 3
SWIDTH 96 0
DWIDTH 16 0
BBX 21 65 0 -65
BITMAP
7FFFF0
800018
800018
800018
800018
800018
806018
80F018
81F818
83FC18
87FE18
8FFF18
9FFF98
9FFF98
800018
800018
800018
800018
800018
800018
800018
FFFFF8
FFFFF8
FFFFF8
FFFFF8
FFFFF8
FFFFF8
FFFFF8
FFFFF8
FFFFF8
FFFFF8
FFFFF8
FFFFF8
FFFFF8
FFFFF8
FFFFF8
FFFFF8
FFFFF8
FFFFF8
FFFFF8
FFFFF8
FFFFF8
FFFFF8
800018
800018
800018
800018
800018
800018
800018
9FFF98
9FFF98
8FFF18
87FE18
83FC18
81F818
80F018
806018
800018
800018
800018
800018
800018
FFFFF8
7FFFF0
ENDCHAR
STARTCHAR VerticalScrollbarElevatorLineForward
ENCODING 4
SWIDTH 96 0
DWIDTH 16 0
BBX 21 65 0 -65
BITMAP
7FFFF0
800018
800018
800018
800018
800018
806018
80F018
81F818
83FC18
87FE18
8FFF18
9FFF98
9FFF98
800018
800018
800018
800018
800018
800018
800018
FFFFF8
800018
800018
800018
800018
800018
800018
800018
800018
800018
800018
800018
800018
800018
800018
800018
800018
800018
800018
800018
800018
FFFFF8
FFFFF8
FFFFF8
FFFFF8
FFFFF8
FFFFF8
FFFFF8
FFFFF8
E00078
E00078
F000F8
F801F8
FC03F8
FE07F8
FF0FF8
FF9FF8
FFFFF8
FFFFF8
FFFFF8
FFFFF8
FFFFF8
FFFFF8
7FFFF0
ENDCHAR
STARTCHAR VerticalScrollbarReducedElevator
ENCODING 5
SWIDTH 96 0
DWIDTH 16 0
BBX 21 44 0 -44
BITMAP
7FFFF0
800018
800018
800018
800018
800018
806018
80F018
81F818
83FC18
87FE18
8FFF18
9FFF98
9FFF98
800018
800018
800018
800018
800018
800018
800018
FFFFF8
800018
800018
800018
800018
800018
800018
800018
9FFF98
9FFF98
8FFF18
87FE18
83FC18
81F818
80F018
806018
800018
800018
800018
800018
800018
FFFFF8
7FFFF0
ENDCHAR
STARTCHAR VerticalScrollbarReducedElevatorLineBackward
ENCODING 6
SWIDTH 96 0
DWIDTH 16 0
BBX 21 44 0 -44
BITMAP
7FFFF0
FFFFF8
FFFFF8
FFFFF8
FFFFF8
FFFFF8
FF9FF8
FF0FF8
FE07F8
FC03F8
F801F8
F000F8
E00078
E00078
FFFFF8
FFFFF8
FFFFF8
FFFFF8
FFFFF8
FFFFF8
FFFFF8
FFFFF8
800018
800018
800018
800018
800018
800018
800018
9FFF98
9FFF98
8FFF18
87FE18
83FC18
81F818
80F018
806018
800018
800018
800018
800018
800018
FFFFF8
7FFFF0
ENDCHAR
STARTCHAR VerticalScrollbarReducedElevatorLineForward
ENCODING 7
SWIDTH 96 0
DWIDTH 16 0
BBX 21 44 0 -44
BITMAP
7FFFF0
800018
800018
800018
800018
800018
806018
80F018
81F818
83FC18
87FE18
8FFF18
9FFF98
9FFF98
800018
800018
800018
800018
800018
800018
800018
FFFFF8
FFFFF8
FFFFF8
FFFFF8
FFFFF8
FFFFF8
FFFFF8
FFFFF8
E00078
E00078
F000F8
F801F8
FC03F8
FE07F8
FF0FF8
FF9FF8
FFFFF8
FFFFF8
FFFFF8
FFFFF8
FFFFF8
FFFFF8
7FFFF0
ENDCHAR
STARTCHAR VerticalScrollbarAnchor
ENCODING 8
SWIDTH 96 0
DWIDTH 16 0
BBX 21 9 0 -9
BITMAP
FFFFF8
800008
800008
800008
800008
800008
800008
800008
FFFFF8
ENDCHAR
STARTCHAR VerticalScrollbarAnchorInverted
ENCODING 9
SWIDTH 96 0
DWIDTH 16 0
BBX 21 9 0 -9
BITMAP
FFFFF8
FFFFF8
FFFFF8
FFFFF8
FFFFF8
FFFFF8
FFFFF8
FFFFF8
FFFFF8
ENDCHAR
STARTCHAR HorizontalScrollbarElevator
ENCODING 10
SWIDTH 96 0
DWIDTH 16 0
BBX 65 21 0 -21
BITMAP
7FFFFFFFFFFFFFFF00
800004000020000180
800004000020000180
800c04000020300180
801C04000020380180
803C040000203c0180
807C040000203e0180
80fC040000203f0180
81FC040000203F8180
83FC040000203Fc180
83FC040000203FC180
81FC040000203F8180
80FC040000203F0180
807C040000203e0180
803C040000203c0180
801C04000020380180
800C04000020300180
800004000020000180
800004000020000180
ffffffffffffffff80
7FFFFFFFFFFFFFFF00
ENDCHAR
STARTCHAR HorizontalScrollbarElevatorLineBackward
ENCODING 11
SWIDTH 96 0
DWIDTH 16 0
BBX 65 21 0 -21
BITMAP
7FFFFFFFFFFFFFFF00
FFFFFc000020000180
FFFFFC000020000180
FFF3FC000020300180
FFe3FC000020380180
FFc3FC0000203c0180
FF83FC0000203e0180
FF03FC0000203f0180
Fe03FC0000203F8180
Fc03FC0000203Fc180
FC03FC0000203FC180
Fe03FC0000203F8180
Ff03FC0000203F0180
FF83FC0000203e0180
FFc3FC0000203c0180
FFe3FC000020380180
FFf3FC000020300180
FFFfFC000020000180
FFFFFC000020000180
FFFFFfffffffffff80
7FFFFFFFFFFFFFFF00
ENDCHAR
STARTCHAR HorizontalScrollbarElevatorAbsolute
ENCODING 12
SWIDTH 96 0
DWIDTH 16 0
BBX 65 21 0 -21
BITMAP
7FFFFFFFFFFFFFFF00
800003FFFFe0000180
800003FFFFE0000180
800c03FFFFE0300180
801C03FFFFE0380180
803C03FFFFE03c0180
807C03FFFFE03e0180
80fC03FFFFE03f0180
81FC03FFFFE03F8180
83FC03FFFFE03Fc180
83FC03FFFFE03FC180
81FC03FFFFE03F8180
80fC03FFFFE03F0180
807C03FFFFE03e0180
803C03FFFFE03c0180
801C03FFFFE0380180
800C03FFFFE0300180
800003FFFFE0000180
800003FFFFE0000180
ffffffFFFFffffff80
7FFFFFFFFFFFFFFF00
ENDCHAR
STARTCHAR HorizontalScrollbarElevatorLineForward
ENCODING 13
SWIDTH 96 0
DWIDTH 16 0
BBX 65 21 0 -21
BITMAP
7FFFFFFFFFFFFFFF00
80000400003FFFFF80
80000400003FFFFF80
800c0400003FcFFF80
801C0400003FC7FF80
803C0400003FC3FF80
807C0400003FC1FF80
80fC0400003FC0FF80
81FC0400003FC07F80
83FC0400003FC03F80
83FC0400003FC03F80
81FC0400003FC07F80
80FC0400003FC0fF80
807C0400003FC1FF80
803C0400003FC3FF80
801C0400003FC7FF80
800C0400003FCfFF80
80000400003FfFFF80
80000400003FFFFF80
fffffffffffFFFFF80
7FFFFFFFFFFFFFFF00
ENDCHAR
STARTCHAR HorizontalScrollbarReducedElevator
ENCODING 14
SWIDTH 96 0
DWIDTH 16 0
BBX 44 21 0 -21
BITMAP
7fFFFFFFFFE0
800004000030
800004000030
800c04060030
801C04070030
803C04078030
807C0407c030
80fC0407e030
81FC0407f030
83FC0407F830
83FC0407F830
81FC0407F030
80FC0407e030
807C0407c030
803C04078030
801C04070030
800C04060030
800004000030
800004000030
fffffffffff0
7FFFFFFFFFE0
ENDCHAR
STARTCHAR HorizontalScrollbarReducedElevatorLineBackward
ENCODING 15
SWIDTH 96 0
DWIDTH 16 0
BBX 44 21 0 -21
BITMAP
7FFFFFFFFFE0
FFFFFc000030
FFFFFC000030
FFF3FC060030
FFe3FC070030
FFc3FC078030
FF83FC07c030
FF03FC07e030
Fe03FC07f030
Fc03FC07F830
FC03FC07F830
Fe03FC07F030
Ff03FC07e030
FF83FC07c030
FFc3FC078030
FFe3FC070030
FFf3FC060030
FFFfFC000030
FFFFFC000030
FFFFFffffff0
7FFFFFFFFFE0
ENDCHAR
STARTCHAR HorizontalScrollbarReducedElevatorLineForward
ENCODING 16
SWIDTH 96 0
DWIDTH 16 0
BBX 44 21 0 -21
BITMAP
7FFFFFFFFFE0
800007FFFFF0
800007FFFFF0
800c07F9FFF0
801C07F8FFF0
803C07F87FF0
807C07F83FF0
80fC07F81FF0
81FC07F80FF0
83FC07F807F0
83FC07F807F0
81FC07F80fF0
80FC07F81FF0
807C07F83FF0
803C07F87FF0
801C07F8fFF0
800C07F9FFF0
800007FfFFF0
800007FFFFF0
ffffffFFFFF0
7FFFFFFFFFE0
ENDCHAR
STARTCHAR HorizontalScrollbarAnchor
ENCODING 17
SWIDTH 96 0
DWIDTH 16 0
BBX 9 21 0 -21
BITMAP
FF80
8080
8080
8080
8080
8080
8080
8080
8080
8080
8080
8080
8080
8080
8080
8080
8080
8080
8080
8080
FF80
ENDCHAR
STARTCHAR HorizontalScrollbarAnchorInverted
ENCODING 18
SWIDTH 96 0
DWIDTH 16 0
BBX 9 21 0 -21
BITMAP
FF80
FF80
FF80
FF80
FF80
FF80
FF80
FF80
FF80
FF80
FF80
FF80
FF80
FF80
FF80
FF80
FF80
FF80
FF80
FF80
FF80
ENDCHAR
ENDFONT
