STARTFONT 2.1
COMMENT 
COMMENT  Copyright 1989 by Sun Microsystems, Inc. Mountain View, CA.
COMMENT 
COMMENT  Permission to use, copy, modify, and distribute this software and
COMMENT  its documentation for any purpose and without fee is hereby granted,
COMMENT  provided that the above copyright notices appear in all copies and
COMMENT  that both those copyright notices and this permission notice appear
COMMENT  in supporting documentation, and that the name of Sun Microsystems
COMMENT  not be used in advertising or publicity pertaining to distribution
COMMENT  of the software without specific, written prior permission.  Sun
COMMENT  Microsystems make no representations about the suitability of this
COMMENT  software for any purpose.  It is provided "as is" without express or
COMMENT  implied warranty.
COMMENT 
COMMENT  SUN MICROSYSTEMS DISCLAIM ALL WARRANTIES WITH REGARD TO THIS
COMMENT  SOFTWARE, INCLUDING ALL IMPLIED WARRANTIES OF MERCHANTABILITY AND
COMMENT  FITNESS, IN NO EVENT SHALL SUN MICROSYSTEMS BE LIABLE FOR ANY
COMMENT  SPECIAL, INDIRECT OR CONSEQUENTIAL DAMAGES OR ANY DAMAGES WHATSOEVER
COMMENT  RESULTING FROM LOSS OF USE, DATA OR PROFITS, WHETHER IN AN ACTION OF
COMMENT  CONTRACT, NEGLIGENCE OR OTHER TORTIOUS ACTION, ARISING OUT OF OR IN
COMMENT  CONNECTION WITH THE USE OR PERFORMANCE OF THIS SOFTWARE.
COMMENT 
COMMENT  ** Open Look Glyph Font, 10-pt **
COMMENT 
FONT olglyph-10
SIZE 10 78 78
FONTBOUNDINGBOX 41 41 0 0
STARTPROPERTIES 2
FONT_DESCENT 41
FONT_ASCENT 0
ENDPROPERTIES
CHARS 18
STARTCHAR VerticalScrollbarElevator
ENCODING 1
SWIDTH 96 0
DWIDTH 16 0
BBX 13 41 0 -41
BITMAP
7FF0
8018
8018
8018
8018
8618
8F18
9F98
9F98
8018
8018
8018
8018
FFF8
8018
8018
8018
8018
8018
8018
8018
8018
8018
8018
8018
8018
FFF8
8018
8018
8018
8018
9F98
9F98
8F18
8618
8018
8018
8018
8018
FFF8
7FF0
ENDCHAR
STARTCHAR VerticalScrollbarElevatorLineBackward
ENCODING 2
SWIDTH 96 0
DWIDTH 16 0
BBX 13 41 0 -41
BITMAP
7FF0
FFF8
FFF8
FFF8
FFF8
F9F8
F0F8
E078
E078
FFF8
FFF8
FFF8
FFF8
FFF8
8018
8018
8018
8018
8018
8018
8018
8018
8018
8018
8018
8018
FFF8
8018
8018
8018
8018
9F98
9F98
8F18
8618
8018
8018
8018
8018
FFF8
7FF0
ENDCHAR
STARTCHAR VerticalScrollbarElevatorAbsolute
ENCODING 3
SWIDTH 96 0
DWIDTH 16 0
BBX 13 41 0 -41
BITMAP
7FF0
8018
8018
8018
8018
8618
8F18
9F98
9F98
8018
8018
8018
8018
FFF8
FFF8
FFF8
FFF8
FFF8
FFF8
FFF8
FFF8
FFF8
FFF8
FFF8
FFF8
FFF8
FFF8
8018
8018
8018
8018
9F98
9F98
8F18
8618
8018
8018
8018
8018
FFF8
7FF0
ENDCHAR
STARTCHAR VerticalScrollbarElevatorLineForward
ENCODING 4
SWIDTH 96 0
DWIDTH 16 0
BBX 13 41 0 -41
BITMAP
7FF0
8018
8018
8018
8018
8618
8F18
9F98
9F98
8018
8018
8018
8018
FFF8
8018
8018
8018
8018
8018
8018
8018
8018
8018
8018
8018
8018
FFF8
FFF8
FFF8
FFF8
FFF8
E078
E078
F0F8
F9F8
FFF8
FFF8
FFF8
FFF8
FFF8
7FF0
ENDCHAR
STARTCHAR VerticalScrollbarReducedElevator
ENCODING 5
SWIDTH 96 0
DWIDTH 16 0
BBX 13 28 0 -28
BITMAP
7FF0
8018
8018
8018
8018
8618
8F18
9F98
9F98
8018
8018
8018
8018
FFF8
8018
8018
8018
8018
9F98
9F98
8F18
8618
8018
8018
8018
8018
FFF8
7FF0
ENDCHAR
STARTCHAR VerticalScrollbarReducedElevatorLineBackward
ENCODING 6
SWIDTH 96 0
DWIDTH 16 0
BBX 13 28 0 -28
BITMAP
7FF0
FFF8
FFF8
FFF8
FFF8
F9F8
F0F8
E078
E078
FFF8
FFF8
FFF8
FFF8
FFF8
8018
8018
8018
8018
9F98
9F98
8F18
8618
8018
8018
8018
8018
FFF8
7FF0
ENDCHAR
STARTCHAR VerticalScrollbarReducedElevatorLineForward
ENCODING 7
SWIDTH 96 0
DWIDTH 16 0
BBX 13 28 0 -28
BITMAP
7FF0
8018
8018
8018
8018
8618
8F18
9F98
9F98
8018
8018
8018
8018
FFF8
FFF8
FFF8
FFF8
FFF8
E078
E078
F0F8
F9F8
FFF8
FFF8
FFF8
FFF8
FFF8
7FF0
ENDCHAR
STARTCHAR VerticalScrollbarAnchor
ENCODING 8
SWIDTH 96 0
DWIDTH 16 0
BBX 13 5 0 -5
BITMAP
FFF8
8008
8008
8008
FFF8
ENDCHAR
STARTCHAR VerticalScrollbarAnchorInverted
ENCODING 9
SWIDTH 96 0
DWIDTH 16 0
BBX 13 5 0 -5
BITMAP
FFF8
FFF8
FFF8
FFF8
FFF8
ENDCHAR
STARTCHAR HorizontalScrollbarElevator
ENCODING 10
SWIDTH 96 0
DWIDTH 16 0
BBX 41 13 0 -13
BITMAP
7FFFFFFFFF00
800400200180
800400200180
818400218180
83840021c180
87840021e180
87840021E180
83840021c180
818400218180
800400200180
800400200180
ffffffffff80
7FFFFFFFFF00
ENDCHAR
STARTCHAR HorizontalScrollbarElevatorLineBackward
ENCODING 11
SWIDTH 96 0
DWIDTH 16 0
BBX 41 13 0 -13
BITMAP
7FFFFFFFFF00
FFFc00200180
FFFC00200180
Fe7C00218180
Fc7C0021c180
F87C0021e180
F87C0021E180
Fc7C0021c180
Fe7C00218180
Fffc00200180
FFFC00200180
FFFfffffff80
7FFFFFFFFF00
ENDCHAR
STARTCHAR HorizontalScrollbarElevatorAbsolute
ENCODING 12
SWIDTH 96 0
DWIDTH 16 0
BBX 41 13 0 -13
BITMAP
7FFFFFFFFF00
8007FFe00180
8007FFE00180
8187FFE18180
8387FFE1c180
8787FFE1e180
8787FFE1E180
8387FFE1c180
8187FFE18180
8007FFE00180
8007FFE00180
ffffFFffff80
7FFFFFFFFF00
ENDCHAR
STARTCHAR HorizontalScrollbarElevatorLineForward
ENCODING 13
SWIDTH 96 0
DWIDTH 16 0
BBX 41 13 0 -13
BITMAP
7FFFFFFFFF00
8004003FFF80
8004003FFF80
8184003e7F80
8384003E3F80
8784003E1F80
8784003E1F80
8384003E3F80
8184003E7F80
8004003ffF80
8004003FFF80
fffffffFFF80
7FFFFFFFFF00
ENDCHAR
STARTCHAR HorizontalScrollbarReducedElevator
ENCODING 14
SWIDTH 96 0
DWIDTH 16 0
BBX 28 13 0 -13
BITMAP
7FFFFFE0
80040030
80040030
81843030
83843830
87843c30
87843C30
83843830
81843030
80040030
80040030
fffffff0
7FFFFFE0
ENDCHAR
STARTCHAR HorizontalScrollbarReducedElevatorLineBackward
ENCODING 15
SWIDTH 96 0
DWIDTH 16 0
BBX 28 13 0 -13
BITMAP
7FFFFFE0
FFFc0030
FFFC0030
Fe7C3030
Fc7C3830
F87C3c30
F87C3C30
Fc7C3830
Fe7C3030
FffC0030
FFFC0030
FFFffff0
7FFFFFE0
ENDCHAR
STARTCHAR HorizontalScrollbarReducedElevatorLineForward
ENCODING 16
SWIDTH 96 0
DWIDTH 16 0
BBX 28 13 0 -13
BITMAP
7FFFFFE0
8007FFF0
8007FFF0
8187cFF0
8387C7F0
8787C3F0
8787C3F0
8387C7F0
8187CfF0
8007fFF0
8007FFF0
ffffFFF0
7FFFFFE0
ENDCHAR
STARTCHAR HorizontalScrollbarAnchor
ENCODING 17
SWIDTH 96 0
DWIDTH 16 0
BBX 5 13 0 -13
BITMAP
F8
88
88
88
88
88
88
88
88
88
88
88
F8
ENDCHAR
STARTCHAR HorizontalScrollbarAnchorInverted
ENCODING 18
SWIDTH 96 0
DWIDTH 16 0
BBX 5 13 0 -13
BITMAP
F8
F8
F8
F8
F8
F8
F8
F8
F8
F8
F8
F8
F8
ENDCHAR
ENDFONT
